<svg width="106" height="100" viewBox="0 0 106 100" fill="none" xmlns="http://www.w3.org/2000/svg">
<path d="M3.038 27.3621H2.22852C0.997617 27.3621 0 28.36 0 29.5906C0 30.8212 0.997617 31.8191 2.22852 31.8191H3.038C4.26828 31.8191 5.26657 30.8212 5.26657 29.5906C5.26657 28.36 4.26859 27.3621 3.038 27.3621Z" fill="#111111"/>
<path d="M21.5707 31.8191C22.8013 31.8191 23.7995 30.8212 23.7995 29.5906C23.7995 28.36 22.8013 27.3621 21.5707 27.3621H9.20313C7.97286 27.3621 6.97461 28.36 6.97461 29.5906C6.97461 30.8212 7.97286 31.8191 9.20313 31.8191H21.5707Z" fill="#111111"/>
<path d="M10.5781 23.5465H11.3784C12.6096 23.5465 13.6069 22.5486 13.6069 21.3183C13.6069 20.0871 12.6096 19.0895 11.3784 19.0895H10.5781C9.34723 19.0895 8.34961 20.0874 8.34961 21.3183C8.34961 22.5486 9.34723 23.5465 10.5781 23.5465Z" fill="#111111"/>
<path d="M24.0084 19.0895H17.5443C16.3131 19.0895 15.3154 20.0874 15.3154 21.3183C15.3154 22.5489 16.3131 23.5465 17.5443 23.5465H24.0084C25.2393 23.5465 26.2369 22.5486 26.2369 21.3183C26.2369 20.0871 25.2393 19.0895 24.0084 19.0895Z" fill="#111111"/>
<path d="M11.3883 35.6357H10.5781C9.34723 35.6357 8.34961 36.6337 8.34961 37.8646C8.34961 39.0952 9.34723 40.0928 10.5781 40.0928H11.3883C12.6192 40.0928 13.6168 39.0949 13.6168 37.8646C13.6168 36.6337 12.6192 35.6357 11.3883 35.6357Z" fill="#111111"/>
<path d="M24.0083 35.6357H17.5538C16.3229 35.6357 15.3252 36.6337 15.3252 37.8646C15.3252 39.0952 16.3229 40.0928 17.5538 40.0928H24.0083C25.2392 40.0928 26.2368 39.0949 26.2368 37.8646C26.2368 36.6337 25.2392 35.6357 24.0083 35.6357Z" fill="#111111"/>
<path d="M83.3369 31.5136L72.6408 19.8147C72.219 19.3526 71.6215 19.0895 70.9957 19.0895H58.3498V9.61916C58.3498 8.38825 57.3522 7.39062 56.1212 7.39062H15.5083C14.2774 7.39062 13.2798 8.38857 13.2798 9.61916C13.2798 10.8497 14.2774 11.8477 15.5083 11.8477H53.8924V47.3352H34.6721C33.7094 44.1014 30.7114 41.7362 27.1697 41.7362C23.6279 41.7362 20.6293 44.1014 19.6676 47.3352H15.5083C14.2774 47.3352 13.2798 48.3328 13.2798 49.5634C13.2798 50.7946 14.2774 51.792 15.5083 51.792H19.6676C20.6293 55.0251 23.6279 57.3906 27.1697 57.3906C30.7114 57.3906 33.7094 55.0251 34.6721 51.792H56.1209H61.4037C62.3664 55.0251 65.365 57.3906 68.9061 57.3906C72.4485 57.3906 75.4465 55.0251 76.4088 51.792H81.6919C82.9228 51.792 83.9204 50.7943 83.9204 49.5634V33.0172C83.9211 32.4613 83.7122 31.9245 83.3369 31.5136ZM27.1697 52.9342C25.3114 52.9342 23.7995 51.4223 23.7995 49.5637C23.7995 47.7054 25.3114 46.1933 27.1697 46.1933C29.028 46.1933 30.5398 47.7058 30.5398 49.5637C30.5401 51.4223 29.028 52.9342 27.1697 52.9342ZM68.9064 52.9342C67.0481 52.9342 65.5363 51.4223 65.5363 49.5637C65.5363 47.7054 67.0485 46.1933 68.9064 46.1933C70.7653 46.1933 72.2772 47.7058 72.2772 49.5637C72.2775 51.4223 70.7653 52.9342 68.9064 52.9342ZM76.4094 47.3355C75.4471 44.1017 72.4491 41.7365 68.9067 41.7365C65.3653 41.7365 62.367 44.1017 61.4043 47.3355H58.3501V23.5469H70.0143L76.6354 30.789H64.012C62.7817 30.789 61.7841 31.7869 61.7841 33.0175C61.7841 34.2487 62.7817 35.2461 64.012 35.2461H79.464V47.3352H76.4094V47.3355Z" fill="#111111"/>
</svg>
